/* XPM */
static char *test_big[] = {
/* columns rows colors chars-per-pixel */
"64 64 3 1 ",
"  c col1",
". c col2",
"X c col3",
/* pixels */
"XXXXXXXXXXXXXXXXXXXXXXXXXXXXXXXXXXXXXXXXXXXXXXXXXXXXXXXXXXXX....",
"XXXXXXXXXXXXXXXXXXXXXXXXXXXXXXXXXXXXXXXXXXXXXXXXXXXXXXXXXXXX....",
"XXXXXXXXXXXXXXXXXXXXXXXXXXXXXXXXXXXXXXXXXXXXXXXXXXXXXXXXXXXX....",
"XXXXXXXXXXXXXXXXXXXXXXXXXXXXXXXXXXXXXXXXXXXXXXXXXXXXXXXXXXXX....",
"XXXXXXXXXXXXXXXXXXXXXXXXXXXXXXXXXXXXXXXXXXXXXXXXXXXXXXXX........",
"XXXXXXXXXXXXXXXXXXXXXXXXXXXXXXXXXXXXXXXXXXXXXXXXXXXXXXXX........",
"XXXXXXXXXXXXXXXXXXXXXXXXXXXXXXXXXXXXXXXXXXXXXXXXXXXXXXXX........",
"XXXXXXXXXXXXXXXXXXXXXXXXXXXXXXXXXXXXXXXXXXXXXXXXXXXXXXXX........",
"XXXXXXXX                                                ........",
"XXXXXXXX                                                ........",
"XXXXXXXX                                                ........",
"XXXXXXXX                                                ........",
"XXXXXXXX                                                ........",
"XXXXXXXX                                                ........",
"XXXXXXXX                                                ........",
"XXXXXXXX                                                ........",
"XXXXXXXX                                                ........",
"XXXXXXXX                                                ........",
"XXXXXXXX                                                ........",
"XXXXXXXX                                                ........",
"XXXXXXXX                                                ........",
"XXXXXXXX                                                ........",
"XXXXXXXX                                                ........",
"XXXXXXXX                                                ........",
"XXXXXXXX                                                ........",
"XXXXXXXX                                                ........",
"XXXXXXXX                                                ........",
"XXXXXXXX                                                ........",
"XXXXXXXX                                                ........",
"XXXXXXXX                                                ........",
"XXXXXXXX                                                ........",
"XXXXXXXX                                                ........",
"XXXXXXXX                                                ........",
"XXXXXXXX                                                ........",
"XXXXXXXX                                                ........",
"XXXXXXXX                                                ........",
"XXXXXXXX                                                ........",
"XXXXXXXX                                                ........",
"XXXXXXXX                                                ........",
"XXXXXXXX                                                ........",
"XXXXXXXX                                                ........",
"XXXXXXXX                                                ........",
"XXXXXXXX                                                ........",
"XXXXXXXX                                                ........",
"XXXXXXXX                                                ........",
"XXXXXXXX                                                ........",
"XXXXXXXX                                                ........",
"XXXXXXXX                                                ........",
"XXXXXXXX                                                ........",
"XXXXXXXX                                                ........",
"XXXXXXXX                                                ........",
"XXXXXXXX                                                ........",
"XXXXXXXX                                                ........",
"XXXXXXXX                                                ........",
"XXXXXXXX                                                ........",
"XXXXXXXX                                                ........",
"XXXX............................................................",
"XXXX............................................................",
"XXXX............................................................",
"XXXX............................................................",
"................................................................",
"................................................................",
"................................................................",
"................................................................"
};
